<svg width="275" height="275" viewBox="0 0 275 275" fill="none" xmlns="http://www.w3.org/2000/svg">
<circle cx="137.5" cy="137.5" r="137.5" fill="url(#paint0_radial_1104_19510)"/>
<circle cx="78" cy="136" r="20" fill="#ECECEC" fill-opacity="0.5"/>
<path fill-rule="evenodd" clip-rule="evenodd" d="M84.0146 129.436C83.7845 129.217 83.4813 129.091 83.1677 129.091H74.385C74.0713 129.091 73.7577 129.217 73.5381 129.436C73.3081 129.656 73.1826 129.948 73.1826 130.262V132.385C73.1826 132.698 73.3081 132.991 73.5381 133.211C73.7368 133.409 73.9982 133.524 74.2805 133.545V143.028C74.2805 143.342 74.4059 143.635 74.6359 143.854C74.866 144.074 75.1692 144.199 75.4828 144.199H82.0698C82.3835 144.199 82.6972 144.074 82.9167 143.854C83.1468 143.635 83.2722 143.342 83.2722 143.028V133.556C83.5545 133.535 83.8159 133.409 84.0146 133.221C84.2446 133.002 84.3701 132.709 84.3701 132.395V130.262C84.3701 129.948 84.2446 129.656 84.0146 129.436ZM81.9653 142.934H75.5874V142.077H78.3268V134.413H75.5874V133.556H81.9653V142.924V142.934ZM75.5874 140.801V135.689H77.0303V140.801H75.5874ZM83.0631 132.28H74.4896V130.367H83.0631V132.291V132.28Z" fill="#D0D0D0"/>
<circle cx="103" cy="85" r="20" fill="#ECECEC" fill-opacity="0.5"/>
<path d="M103 80.6863C103.884 80.6863 104.6 79.984 104.6 79.1177C104.6 78.2514 103.884 77.5491 103 77.5491C102.117 77.5491 101.4 78.2514 101.4 79.1177C101.4 79.984 102.117 80.6863 103 80.6863Z" fill="#D0D0D0"/>
<path d="M105.401 93.2353V83.0393H109.401V81.4706H96.6006V83.0393H100.601V93.2353H102.201V87.7452H103.801V93.2353H105.401Z" fill="#D0D0D0"/>
<circle cx="113" cy="204" r="25" fill="#ECECEC" fill-opacity="0.5"/>
<path d="M109.999 212.464C110.656 212.465 111.307 212.339 111.914 212.093C112.521 211.846 113.072 211.484 113.535 211.027L120.669 204.034C121.605 203.114 122.131 201.867 122.131 200.567C122.13 199.268 121.605 198.021 120.668 197.101C119.723 196.176 118.467 195.667 117.132 195.667C115.797 195.667 114.541 196.176 113.598 197.102L106.464 204.096C105.528 205.017 105.003 206.263 105.003 207.563C105.003 208.862 105.528 210.109 106.464 211.029C106.928 211.486 107.478 211.847 108.085 212.093C108.692 212.34 109.342 212.465 109.999 212.464ZM115.012 198.488C115.29 198.214 115.62 197.997 115.984 197.85C116.348 197.702 116.738 197.626 117.132 197.627C117.934 197.627 118.688 197.934 119.254 198.488C119.816 199.04 120.132 199.788 120.132 200.568C120.132 201.348 119.817 202.096 119.255 202.648L116.362 205.483L112.12 201.323L115.012 198.488ZM107.878 205.482L110.706 202.71L114.948 206.87L112.121 209.641C110.988 210.752 109.011 210.751 107.878 209.642C107.317 209.09 107.001 208.342 107.001 207.562C107.001 206.782 107.317 206.035 107.878 205.482Z" fill="#D0D0D0"/>
<circle cx="201" cy="126" r="25" fill="#ECECEC" fill-opacity="0.5"/>
<path d="M193 135.314H202.62C203.197 135.314 203.767 135.192 204.292 134.955C204.816 134.719 205.282 134.374 205.657 133.944L210.759 128.109C210.866 127.987 210.94 127.841 210.976 127.684C211.012 127.527 211.008 127.364 210.964 127.209C210.921 127.054 210.839 126.912 210.726 126.795C210.613 126.679 210.473 126.591 210.317 126.54L208.349 125.897C207.873 125.746 207.367 125.711 206.875 125.797C206.382 125.883 205.919 126.087 205.526 126.39L202.341 128.887L201.724 127.677C201.393 127.024 200.883 126.475 200.251 126.092C199.618 125.709 198.889 125.507 198.146 125.51H193C191.897 125.51 191 126.389 191 127.471V133.353C191 134.434 191.897 135.314 193 135.314ZM193 127.471H198.146C198.909 127.471 199.594 127.885 199.935 128.554L200.382 129.431H196V131.392H202.014C202.168 131.39 202.319 131.353 202.456 131.284L202.459 131.283L202.463 131.281H202.466L202.468 131.28H202.472L202.473 131.279C202.482 131.282 202.476 131.279 202.476 131.279C202.486 131.279 202.478 131.278 202.478 131.278H202.479L202.481 131.277L202.484 131.276L202.486 131.275L202.488 131.274L202.491 131.273L202.493 131.272C202.496 131.272 202.494 131.271 202.495 131.271L202.498 131.269L202.5 131.268L202.502 131.267L202.505 131.266L202.507 131.265H202.508L202.51 131.264H202.511L202.513 131.263L202.515 131.262C202.524 131.261 202.518 131.261 202.518 131.261L202.52 131.26C202.559 131.237 202.595 131.212 202.63 131.183L206.776 127.931C207.038 127.728 207.399 127.664 207.716 127.768L208.273 127.95L204.14 132.679C203.95 132.89 203.716 133.06 203.454 133.176C203.192 133.292 202.908 133.353 202.62 133.353H193V127.471ZM205 116.686H204.983C204.82 116.688 203.977 116.725 203 117.378C202.049 116.742 201.226 116.691 201.032 116.687L201.002 116.686H200.998C200.197 116.686 199.443 116.993 198.879 117.547C198.313 118.103 198 118.841 198 119.628C198 120.414 198.313 121.152 198.861 121.69L202.275 125.206C202.369 125.302 202.482 125.378 202.606 125.429C202.731 125.481 202.865 125.508 203 125.508C203.136 125.508 203.27 125.481 203.394 125.429C203.519 125.377 203.631 125.301 203.725 125.205L207.121 121.707C207.688 121.152 208 120.414 208 119.628C208 118.841 207.687 118.103 207.122 117.548C206.844 117.274 206.514 117.057 206.15 116.909C205.786 116.761 205.396 116.685 205.002 116.686H205ZM206 119.628C206 119.889 205.896 120.135 205.689 120.338L203 123.108L200.293 120.321C200.104 120.135 200 119.889 200 119.628C200 119.366 200.104 119.12 200.294 118.933C200.475 118.753 200.721 118.65 200.979 118.647C201.004 118.648 201.481 118.679 202.046 119.123C202.127 119.186 202.209 119.259 202.293 119.34L203 120.033L203.707 119.34C203.791 119.259 203.873 119.186 203.954 119.123C204.483 118.706 204.93 118.654 205.006 118.648C205.136 118.648 205.265 118.673 205.386 118.723C205.506 118.772 205.615 118.844 205.707 118.934C205.896 119.12 206 119.366 206 119.628Z" fill="#D0D0D0"/>
<rect x="106" y="106" width="64" height="64" rx="20" fill="#295788"/>
<circle cx="181" cy="184" r="15" fill="#ECECEC" fill-opacity="0.5"/>
<path d="M181 178.412C177.692 178.412 175 181.051 175 184.294C175 187.538 177.692 190.177 181 190.177C184.308 190.177 187 187.538 187 184.294C187 181.051 184.308 178.412 181 178.412ZM185.759 183.706H181.6V179.629C182.656 179.761 183.637 180.233 184.39 180.971C185.143 181.709 185.624 182.671 185.759 183.706ZM176.2 184.294C176.2 181.899 178.037 179.92 180.4 179.629V184.294C180.402 184.384 180.425 184.472 180.467 184.552C180.476 184.569 180.48 184.589 180.491 184.607L183.012 188.561C182.382 188.85 181.695 188.999 181 189C178.353 189 176.2 186.889 176.2 184.294ZM184.031 187.939L182.083 184.882H185.759C185.605 186.081 184.986 187.175 184.031 187.939Z" fill="#D0D0D0"/>
<path d="M149.333 123.833H132.333C130.771 123.833 129.5 125.104 129.5 126.667V143.667C129.5 145.229 130.771 146.5 132.333 146.5H149.333C150.896 146.5 152.167 145.229 152.167 143.667V126.667C152.167 125.104 150.896 123.833 149.333 123.833ZM132.333 143.667V126.667H149.333L149.336 143.667H132.333Z" fill="white"/>
<path d="M126.666 132.333H123.833V149.333C123.833 150.896 125.104 152.167 126.666 152.167H143.666V149.333H126.666V132.333ZM142.25 129.5H139.416V133.75H135.166V136.583H139.416V140.833H142.25V136.583H146.5V133.75H142.25V129.5Z" fill="white"/>
<defs>
<radialGradient id="paint0_radial_1104_19510" cx="0" cy="0" r="1" gradientUnits="userSpaceOnUse" gradientTransform="translate(137.5 137.5) rotate(90) scale(137.5)">
<stop stop-color="#BCBCBC"/>
<stop offset="1" stop-color="white" stop-opacity="0"/>
</radialGradient>
</defs>
</svg>
