<svg width="18" height="18" viewBox="0 0 18 18" fill="none" xmlns="http://www.w3.org/2000/svg">
<path fill-rule="evenodd" clip-rule="evenodd" d="M14.36 2.33C14.14 2.12 13.85 2 13.55 2H5.15C4.85 2 4.55 2.12 4.34 2.33C4.12 2.54 4 2.82 4 3.12V5.15C4 5.45 4.12 5.73 4.34 5.94C4.53 6.13 4.78 6.24 5.05 6.26V15.33C5.05 15.63 5.17 15.91 5.39 16.12C5.61 16.33 5.9 16.45 6.2 16.45H12.5C12.8 16.45 13.1 16.33 13.31 16.12C13.53 15.91 13.65 15.63 13.65 15.33V6.27C13.92 6.25 14.17 6.13 14.36 5.95C14.58 5.74 14.7 5.46 14.7 5.16V3.12C14.7 2.82 14.58 2.54 14.36 2.33ZM12.4 15.24H6.3V14.42H8.92V7.09H6.3V6.27H12.4V15.23V15.24ZM6.3 13.2V8.31H7.68V13.2H6.3ZM13.45 5.05H5.25V3.22H13.45V5.06V5.05Z" fill="black"/>
</svg>
