<svg width="18" height="18" viewBox="0 0 18 18" fill="none" xmlns="http://www.w3.org/2000/svg">
<path d="M6.74911 15.0997C7.24185 15.101 7.72994 15.0046 8.18515 14.816C8.64036 14.6274 9.05365 14.3504 9.40111 14.001L14.7516 8.65125C15.4537 7.94718 15.8479 6.9934 15.8478 5.99909C15.8476 5.00479 15.4532 4.05112 14.7509 3.34725C14.0421 2.64 13.1001 2.25 12.0989 2.25C11.0976 2.25 10.1556 2.64 9.44836 3.348L4.09786 8.6985C3.39604 9.40266 3.00195 10.3563 3.00195 11.3505C3.00195 12.3447 3.39604 13.2983 4.09786 14.0025C4.44538 14.3515 4.85862 14.6281 5.31368 14.8165C5.76874 15.0048 6.25662 15.1011 6.74911 15.0997ZM10.5089 4.4085C10.7172 4.19908 10.965 4.03305 11.2379 3.92002C11.5108 3.80699 11.8035 3.7492 12.0989 3.75C12.7004 3.75 13.2659 3.98475 13.6904 4.4085C14.1118 4.83076 14.3485 5.40291 14.3486 5.99947C14.3488 6.59603 14.1123 7.16829 13.6911 7.59075L11.5214 9.75975L8.33986 6.5775L10.5089 4.4085ZM5.15836 9.759L7.27936 7.638L10.4609 10.8202L8.34061 12.9405C7.49086 13.7902 6.00811 13.7895 5.15836 12.9412C4.73724 12.5188 4.50077 11.9466 4.50077 11.3501C4.50077 10.7536 4.73724 10.1815 5.15836 9.759Z" fill="black"/>
</svg>
