<svg width="42" height="42" viewBox="0 0 42 42" fill="none" xmlns="http://www.w3.org/2000/svg">
<circle cx="21" cy="21" r="21" fill="#F2F2F2"/>
<path d="M13 30H22.62C23.1971 30.0003 23.7674 29.8756 24.2916 29.6344C24.8159 29.3933 25.2817 29.0414 25.657 28.603L30.759 22.651C30.8658 22.5266 30.9404 22.3778 30.9762 22.2178C31.012 22.0577 31.0079 21.8913 30.9642 21.7333C30.9206 21.5752 30.8387 21.4303 30.7258 21.3113C30.6129 21.1923 30.4726 21.1029 30.317 21.051L28.349 20.395C27.8734 20.2404 27.3669 20.2054 26.8745 20.2932C26.3821 20.3809 25.919 20.5886 25.526 20.898L22.341 23.445L21.724 22.21C21.3935 21.5443 20.8831 20.9844 20.2507 20.5938C19.6184 20.2032 18.8893 19.9975 18.146 20H13C11.897 20 11 20.897 11 22V28C11 29.103 11.897 30 13 30ZM13 22H18.146C18.909 22 19.594 22.423 19.935 23.105L20.382 24H16V26H22.014C22.1679 25.998 22.3191 25.9603 22.456 25.89L22.459 25.889L22.463 25.887H22.466L22.468 25.886H22.472L22.473 25.885C22.482 25.888 22.476 25.884 22.476 25.884C22.486 25.884 22.478 25.883 22.478 25.883H22.479L22.481 25.882L22.484 25.881L22.486 25.88L22.488 25.879L22.491 25.878L22.493 25.877C22.496 25.877 22.494 25.876 22.495 25.876L22.498 25.874L22.5 25.873L22.502 25.872L22.505 25.871L22.507 25.87H22.508L22.51 25.869H22.511L22.513 25.868L22.515 25.867C22.524 25.866 22.518 25.866 22.518 25.866L22.52 25.865C22.5585 25.8418 22.5953 25.8157 22.63 25.787L26.776 22.47C27.038 22.262 27.399 22.197 27.716 22.303L28.273 22.489L24.14 27.312C23.9499 27.5279 23.716 27.7009 23.454 27.8195C23.1919 27.9381 22.9077 27.9996 22.62 28H13V22ZM25 11H24.983C24.82 11.002 23.977 11.039 23 11.705C22.049 11.057 21.226 11.005 21.032 11.001L21.002 11H20.998C20.197 11 19.443 11.313 18.879 11.878C18.313 12.445 18 13.198 18 14C18 14.802 18.313 15.555 18.861 16.104L22.275 19.69C22.3689 19.7875 22.4816 19.8651 22.6062 19.918C22.7308 19.9709 22.8648 19.9982 23.0002 19.9981C23.1356 19.998 23.2696 19.9706 23.3941 19.9175C23.5187 19.8643 23.6312 19.7866 23.725 19.689L27.121 16.121C27.688 15.555 28 14.802 28 14C28 13.198 27.687 12.445 27.122 11.879C26.8443 11.5996 26.514 11.378 26.1501 11.2271C25.7862 11.0762 25.3959 10.999 25.002 11H25ZM26 14C26 14.267 25.896 14.518 25.689 14.725L23 17.55L20.293 14.707C20.104 14.518 20 14.267 20 14C20 13.733 20.104 13.482 20.294 13.292C20.4748 13.1081 20.7211 13.0031 20.979 13C21.004 13.001 21.481 13.032 22.046 13.485C22.127 13.55 22.209 13.624 22.293 13.707L23 14.414L23.707 13.707C23.791 13.624 23.873 13.55 23.954 13.485C24.483 13.06 24.93 13.007 25.006 13.001C25.1363 13.001 25.2654 13.0268 25.3857 13.0769C25.506 13.127 25.6152 13.2005 25.707 13.293C25.896 13.482 26 13.733 26 14Z" fill="#295788"/>
</svg>
