<svg width="124" height="22" viewBox="0 0 124 22" fill="none" xmlns="http://www.w3.org/2000/svg">
<path d="M43.9926 1.34695L36.5046 19.9796H33.9232L26.4412 1.34695H29.8632L35.205 14.7653L40.5706 1.34695H43.9926Z" fill="#295788"/>
<path d="M60.384 10.6633C60.384 6.99869 57.974 4.30467 54.2794 4.30467C50.5847 4.30467 48.0863 6.99869 48.0863 10.6633C48.0863 14.3278 50.5788 17.0218 54.2794 17.0218C57.9799 17.0218 60.384 14.3278 60.384 10.6633ZM44.9043 10.6633C44.9043 5.13405 48.7462 1.12244 54.2794 1.12244C59.8125 1.12244 63.5955 5.13405 63.5955 10.6633C63.5955 16.1925 59.8125 20.2041 54.2794 20.2041C48.7462 20.2041 44.9043 16.1925 44.9043 10.6633Z" fill="#295788"/>
<path d="M69.75 1.34695H66.5588V19.9796H69.75V1.34695Z" fill="#295788"/>
<path d="M87.3015 4.27192H81.5142V19.9796H78.2726V4.27192H72.4854V1.34695H87.3015V4.27192Z" fill="#295788"/>
<path d="M105.081 1.34695V19.9796H101.894V12.2111H93.2239V19.9796H90.0369V1.34695H93.2239V9.11546H101.894V1.34695H105.081Z" fill="#295788"/>
<path d="M117.307 11.9521V19.9796H114.083V12.0404L107.36 1.34695H111.073L115.68 8.65642L120.293 1.34695H124L117.307 11.9521Z" fill="#295788"/>
<path d="M5.01471 10.044V0C2.01989 1.00498 0 3.83187 0 7.01726V17.0612C2.99481 16.0562 5.01471 13.2294 5.01471 10.044Z" fill="#E84034"/>
<path d="M10.0628 17.0612H0C1.00805 20.013 3.84356 22 7.03277 22H17.0956C16.0875 19.0482 13.252 17.0612 10.0628 17.0612Z" fill="#E84034"/>
<path d="M22.3381 4.93878C19.2072 5.94377 17.0955 8.77065 17.0955 11.956V22C20.2264 20.9891 22.3381 18.1681 22.3381 14.9827V4.93878Z" fill="#E84034"/>
<path d="M12.1412 4.93878H22.3382C21.3167 1.99274 18.4493 0 15.2176 0H5.01465C6.03614 2.95178 8.90946 4.93878 12.1412 4.93878Z" fill="#E84034"/>
</svg>
