<svg width="23" height="23" viewBox="0 0 23 23" fill="none" xmlns="http://www.w3.org/2000/svg">
<path fill-rule="evenodd" clip-rule="evenodd" d="M18.1896 2.95133C17.9109 2.68533 17.5436 2.53333 17.1636 2.53333H6.52356C6.14356 2.53333 5.76356 2.68533 5.49756 2.95133C5.21889 3.21733 5.06689 3.57199 5.06689 3.95199V6.52332C5.06689 6.90333 5.21889 7.25799 5.49756 7.52399C5.73823 7.76466 6.05489 7.90399 6.39689 7.92933V19.418C6.39689 19.798 6.54889 20.1527 6.82756 20.4187C7.10623 20.6847 7.47356 20.8367 7.85356 20.8367H15.8336C16.2136 20.8367 16.5936 20.6847 16.8596 20.4187C17.1382 20.1527 17.2902 19.798 17.2902 19.418V7.94199C17.6322 7.91666 17.9489 7.76466 18.1896 7.53666C18.4682 7.27066 18.6202 6.91599 18.6202 6.53599V3.95199C18.6202 3.57199 18.4682 3.21733 18.1896 2.95133ZM15.7069 19.304H7.98023V18.2653H11.2989V8.98066H7.98023V7.94199H15.7069V19.2913V19.304ZM7.98023 16.72V10.526H9.72823V16.72H7.98023ZM17.0369 6.39666H6.65023V4.07866H17.0369V6.40932V6.39666Z" fill="white"/>
</svg>
