<svg width="125" height="109" viewBox="0 0 125 109" fill="none" xmlns="http://www.w3.org/2000/svg">
<circle cx="54.5" cy="54.5" r="54.5" fill="white"/>
<path d="M36.6668 74.4999H57.5102C58.7605 74.5006 59.9961 74.2304 61.1321 73.7079C62.268 73.1854 63.2772 72.4229 64.0903 71.4731L75.1447 58.5771C75.3761 58.3075 75.5378 57.9852 75.6153 57.6384C75.6928 57.2917 75.6839 56.9312 75.5893 56.5887C75.4947 56.2462 75.3173 55.9322 75.0728 55.6744C74.8282 55.4166 74.524 55.223 74.187 55.1104L69.923 53.6891C68.8924 53.3541 67.7952 53.2783 66.7283 53.4684C65.6615 53.6585 64.6579 54.1086 63.8065 54.7789L56.9057 60.2974L55.5688 57.6216C54.8526 56.1792 53.7469 54.9662 52.3768 54.1199C51.0066 53.2736 49.4269 52.8279 47.8165 52.8333H36.6668C34.277 52.8333 32.3335 54.7768 32.3335 57.1666V70.1666C32.3335 72.5564 34.277 74.4999 36.6668 74.4999ZM36.6668 57.1666H47.8165C49.4697 57.1666 50.9538 58.0831 51.6927 59.5608L52.6612 61.4999H43.1668V65.8333H56.1972C56.5305 65.8289 56.8583 65.7473 57.1548 65.5949L57.1613 65.5928L57.17 65.5884H57.1765L57.1808 65.5863H57.1895L57.1917 65.5841C57.2112 65.5906 57.1982 65.5819 57.1982 65.5819C57.2198 65.5819 57.2025 65.5798 57.2025 65.5798H57.2047L57.209 65.5776L57.2155 65.5754L57.2198 65.5733L57.2242 65.5711L57.2307 65.5689L57.235 65.5668C57.2415 65.5668 57.2372 65.5646 57.2393 65.5646L57.2458 65.5603L57.2502 65.5581L57.2545 65.5559L57.261 65.5538L57.2653 65.5516H57.2675L57.2718 65.5494H57.274L57.2783 65.5473L57.2827 65.5451C57.3022 65.5429 57.2892 65.5429 57.2892 65.5429L57.2935 65.5408C57.377 65.4904 57.4566 65.4339 57.5318 65.3718L66.5148 58.1849C67.0825 57.7343 67.8647 57.5934 68.5515 57.8231L69.7583 58.2261L60.8035 68.6759C60.3916 69.1437 59.8849 69.5185 59.3171 69.7754C58.7493 70.0324 58.1334 70.1658 57.5102 70.1666H36.6668V57.1666ZM62.6668 33.3333H62.63C62.2768 33.3376 60.4503 33.4178 58.3335 34.8608C56.273 33.4568 54.4898 33.3441 54.0695 33.3354L54.0045 33.3333H53.9958C52.2603 33.3333 50.6267 34.0114 49.4047 35.2356C48.1783 36.4641 47.5002 38.0956 47.5002 39.8333C47.5002 41.5709 48.1783 43.2024 49.3657 44.3919L56.7627 52.1616C56.9662 52.3729 57.2102 52.5409 57.4802 52.6556C57.7502 52.7703 58.0406 52.8293 58.334 52.8291C58.6273 52.8289 58.9176 52.7695 59.1874 52.6544C59.4573 52.5393 59.7011 52.371 59.9043 52.1594L67.2623 44.4288C68.4908 43.2024 69.1668 41.5709 69.1668 39.8333C69.1668 38.0956 68.4887 36.4641 67.2645 35.2378C66.6629 34.6323 65.9471 34.1522 65.1587 33.8253C64.3702 33.4984 63.5247 33.3311 62.6712 33.3333H62.6668ZM64.8335 39.8333C64.8335 40.4118 64.6082 40.9556 64.1597 41.4041L58.3335 47.5249L52.4683 41.3651C52.0588 40.9556 51.8335 40.4118 51.8335 39.8333C51.8335 39.2548 52.0588 38.7109 52.4705 38.2993C52.8623 37.9007 53.3958 37.6733 53.9547 37.6666C54.0088 37.6688 55.0423 37.7359 56.2665 38.7174C56.442 38.8583 56.6197 39.0186 56.8017 39.1984L58.3335 40.7303L59.8653 39.1984C60.0473 39.0186 60.225 38.8583 60.4005 38.7174C61.5467 37.7966 62.5152 37.6818 62.6798 37.6688C62.9622 37.6687 63.2418 37.7246 63.5025 37.8332C63.7632 37.9418 63.9998 38.1009 64.1987 38.3014C64.6082 38.7109 64.8335 39.2548 64.8335 39.8333Z" fill="#E84034"/>
<circle cx="93" cy="23" r="19" fill="#295788"/>
<path d="M92.9999 16.3501C88.8095 16.3501 85.3999 19.7596 85.3999 23.9501C85.3999 28.1405 88.8095 31.5501 92.9999 31.5501C97.1904 31.5501 100.6 28.1405 100.6 23.9501C100.6 19.7596 97.1904 16.3501 92.9999 16.3501ZM92.9999 29.6501C89.8564 29.6501 87.2999 27.0936 87.2999 23.9501C87.2999 20.8065 89.8564 18.2501 92.9999 18.2501C96.1435 18.2501 98.6999 20.8065 98.6999 23.9501C98.6999 27.0936 96.1435 29.6501 92.9999 29.6501Z" fill="white"/>
<path d="M92.0499 20.15H93.9499V24.9H92.0499V20.15ZM90.1499 13.5H95.8499V15.4H90.1499V13.5ZM99.9283 18.9216L98.0283 17.0217L99.3716 15.6784L101.272 17.5784L99.9283 18.9216Z" fill="white"/>
<circle cx="109" cy="68" r="16" fill="#295788"/>
<path d="M115.4 60.0002H105.8C104.917 60.0002 104.2 60.7178 104.2 61.6002V71.2002C104.2 72.0826 104.917 72.8002 105.8 72.8002H115.4C116.282 72.8002 117 72.0826 117 71.2002V61.6002C117 60.7178 116.282 60.0002 115.4 60.0002ZM105.8 71.2002V61.6002H115.4L115.401 71.2002H105.8Z" fill="white"/>
<path d="M102.6 64.8002H101V74.4002C101 75.2826 101.718 76.0002 102.6 76.0002H112.2V74.4002H102.6V64.8002ZM111.4 63.2002H109.8V65.6002H107.4V67.2002H109.8V69.6002H111.4V67.2002H113.8V65.6002H111.4V63.2002Z" fill="white"/>
</svg>
