<svg width="125" height="109" viewBox="0 0 125 109" fill="none" xmlns="http://www.w3.org/2000/svg">
<circle cx="54.5" cy="54.5" r="54.5" fill="white"/>
<circle cx="93" cy="23" r="19" fill="#295788"/>
<path d="M53.9998 39.8334C44.4427 39.8334 36.6665 47.6095 36.6665 57.1667C36.6665 66.7239 44.4427 74.5 53.9998 74.5C63.557 74.5 71.3332 66.7239 71.3332 57.1667C71.3332 47.6095 63.557 39.8334 53.9998 39.8334ZM53.9998 70.1667C46.8303 70.1667 40.9998 64.3362 40.9998 57.1667C40.9998 49.9972 46.8303 44.1667 53.9998 44.1667C61.1693 44.1667 66.9998 49.9972 66.9998 57.1667C66.9998 64.3362 61.1693 70.1667 53.9998 70.1667Z" fill="#E84034"/>
<path d="M51.8333 48.5H56.1667V59.3334H51.8333V48.5ZM47.5 33.3334H60.5V37.6667H47.5V33.3334ZM69.8015 45.6985L65.4682 41.3652L68.5318 38.3015L72.8652 42.6349L69.8015 45.6985Z" fill="#E84034"/>
<path fill-rule="evenodd" clip-rule="evenodd" d="M100.19 14.9513C99.9109 14.6853 99.5436 14.5333 99.1636 14.5333H88.5236C88.1436 14.5333 87.7636 14.6853 87.4976 14.9513C87.2189 15.2173 87.0669 15.572 87.0669 15.952V18.5233C87.0669 18.9033 87.2189 19.258 87.4976 19.524C87.7382 19.7647 88.0549 19.904 88.3969 19.9293V31.418C88.3969 31.798 88.5489 32.1527 88.8276 32.4187C89.1062 32.6847 89.4736 32.8367 89.8536 32.8367H97.8336C98.2136 32.8367 98.5936 32.6847 98.8596 32.4187C99.1382 32.1527 99.2902 31.798 99.2902 31.418V19.942C99.6322 19.9167 99.9489 19.7647 100.19 19.5367C100.468 19.2707 100.62 18.916 100.62 18.536V15.952C100.62 15.572 100.468 15.2173 100.19 14.9513ZM97.7069 31.304H89.9802V30.2653H93.2989V20.9807H89.9802V19.942H97.7069V31.2913V31.304ZM89.9802 28.72V22.526H91.7282V28.72H89.9802ZM99.0369 18.3967H88.6502V16.0787H99.0369V18.4093V18.3967Z" fill="white"/>
<circle cx="109" cy="65" r="16" fill="#295788"/>
<path d="M109.337 60.5368C110.22 60.5368 110.937 59.8204 110.937 58.9368C110.937 58.0531 110.22 57.3368 109.337 57.3368C108.453 57.3368 107.737 58.0531 107.737 58.9368C107.737 59.8204 108.453 60.5368 109.337 60.5368Z" fill="white"/>
<path d="M111.737 73.3368V62.9368H115.737V61.3368H102.937V62.9368H106.937V73.3368H108.537V67.7368H110.137V73.3368H111.737Z" fill="white"/>
</svg>
