<svg width="125" height="109" viewBox="0 0 125 109" fill="none" xmlns="http://www.w3.org/2000/svg">
<circle cx="54.5" cy="54.5" r="54.5" fill="white"/>
<circle cx="93" cy="23" r="19" fill="#295788"/>
<path fill-rule="evenodd" clip-rule="evenodd" d="M100.19 14.9513C99.9109 14.6853 99.5436 14.5333 99.1636 14.5333H88.5236C88.1436 14.5333 87.7636 14.6853 87.4976 14.9513C87.2189 15.2173 87.0669 15.572 87.0669 15.952V18.5233C87.0669 18.9033 87.2189 19.258 87.4976 19.524C87.7382 19.7647 88.0549 19.904 88.3969 19.9293V31.418C88.3969 31.798 88.5489 32.1527 88.8276 32.4187C89.1062 32.6847 89.4736 32.8367 89.8536 32.8367H97.8336C98.2136 32.8367 98.5936 32.6847 98.8596 32.4187C99.1382 32.1527 99.2902 31.798 99.2902 31.418V19.942C99.6322 19.9167 99.9489 19.7647 100.19 19.5367C100.468 19.2707 100.62 18.916 100.62 18.536V15.952C100.62 15.572 100.468 15.2173 100.19 14.9513ZM97.7069 31.304H89.9802V30.2653H93.2989V20.9807H89.9802V19.942H97.7069V31.2913V31.304ZM89.9802 28.72V22.526H91.7282V28.72H89.9802ZM99.0369 18.3967H88.6502V16.0787H99.0369V18.4093V18.3967Z" fill="white"/>
<circle cx="109" cy="65" r="16" fill="#295788"/>
<path d="M109.337 60.5368C110.22 60.5368 110.937 59.8204 110.937 58.9368C110.937 58.0531 110.22 57.3368 109.337 57.3368C108.453 57.3368 107.737 58.0531 107.737 58.9368C107.737 59.8204 108.453 60.5368 109.337 60.5368Z" fill="white"/>
<path d="M111.737 73.3368V62.9368H115.737V61.3368H102.937V62.9368H106.937V73.3368H108.537V67.7368H110.137V73.3368H111.737Z" fill="white"/>
<path d="M54.0002 65.8333L56.1668 61.5V50.359C59.8957 49.3905 62.6668 46.0256 62.6668 42C62.6668 37.2203 58.7798 33.3333 54.0002 33.3333C49.2205 33.3333 45.3335 37.2203 45.3335 42C45.3335 46.0256 48.1047 49.3905 51.8335 50.359V61.5L54.0002 65.8333ZM49.6668 42C49.6668 39.6101 51.6103 37.6666 54.0002 37.6666C56.39 37.6666 58.3335 39.6101 58.3335 42C58.3335 44.3898 56.39 46.3333 54.0002 46.3333C51.6103 46.3333 49.6668 44.3898 49.6668 42Z" fill="#E84034"/>
<path d="M63.2453 51.8865L62.0905 56.0638C67.7043 57.6152 71.3335 60.5987 71.3335 63.6667C71.3335 67.766 64.216 72.3333 54.0002 72.3333C43.7843 72.3333 36.6668 67.766 36.6668 63.6667C36.6668 60.5987 40.296 57.6152 45.912 56.0617L44.7572 51.8843C37.0937 54.0033 32.3335 58.5165 32.3335 63.6667C32.3335 70.9553 41.8517 76.6667 54.0002 76.6667C66.1487 76.6667 75.6668 70.9553 75.6668 63.6667C75.6668 58.5165 70.9067 54.0033 63.2453 51.8865Z" fill="#E84034"/>
</svg>
