<svg width="24" height="24" viewBox="0 0 24 24" fill="none" xmlns="http://www.w3.org/2000/svg">
<g clip-path="url(#clip0_3321_7052)">
<g clip-path="url(#clip1_3321_7052)">
<path d="M12 5C7.589 5 4 8.589 4 13C4 17.411 7.589 21 12 21C16.411 21 20 17.411 20 13C20 8.589 16.411 5 12 5ZM12 19C8.691 19 6 16.309 6 13C6 9.691 8.691 7 12 7C15.309 7 18 9.691 18 13C18 16.309 15.309 19 12 19Z" fill="#2D79F6"/>
<path d="M11 9H13V14H11V9ZM9 2H15V4H9V2Z" fill="#2D79F6"/>
<path d="M19.293 7.70697L17.293 5.70697L18.707 4.29297L20.707 6.29297L19.293 7.70697Z" fill="#2D79F6"/>
</g>
</g>
<defs>
<clipPath id="clip0_3321_7052">
<rect width="24" height="24" fill="white"/>
</clipPath>
<clipPath id="clip1_3321_7052">
<rect width="24" height="24" fill="white"/>
</clipPath>
</defs>
</svg>
