<svg width="24" height="24" viewBox="0 0 24 24" fill="none" xmlns="http://www.w3.org/2000/svg">
<g clip-path="url(#clip0_3321_7466)">
<path d="M12 2.00012C6.486 2.00012 2 6.48612 2 12.0001C2 17.5141 6.486 22.0001 12 22.0001C17.514 22.0001 22 17.5141 22 12.0001C22 6.48612 17.514 2.00012 12 2.00012ZM12 20.0001C7.589 20.0001 4 16.4111 4 12.0001C4 7.58912 7.589 4.00012 12 4.00012C16.411 4.00012 20 7.58912 20 12.0001C20 16.4111 16.411 20.0001 12 20.0001Z" fill="#4DA857"/>
<path d="M9.99909 13.5872L7.70009 11.2922L6.28809 12.7082L10.0011 16.4132L16.7071 9.70715L15.2931 8.29315L9.99909 13.5872Z" fill="#4DA857"/>
</g>
<defs>
<clipPath id="clip0_3321_7466">
<rect width="24" height="24" fill="white"/>
</clipPath>
</defs>
</svg>
